<?xml version="1.0" encoding="UTF-8"?>
<svg id="Layer_1" data-name="Layer 1" xmlns="http://www.w3.org/2000/svg" viewBox="0 0 1080 1080">
  <defs>
    <style>
      .cls-1 {
        stroke-width: 0px;
      }
    </style>
  </defs>
  <path class="cls-1" d="m335.9,574.67c0-97.95,0-195.9,0-293.85,0-37.71,22.65-60.41,60.28-60.41,116.7-.02,233.4-.02,350.09-.02,35.23,0,58.63,23.14,58.64,58.52.06,177.39,0,354.78,0,532.17,0,20.39.02,40.77-.01,61.16-.03,15.79-5.74,21.39-21.73,21.42-6.33,0-12.65.04-18.98.04-14.51,0-20.64-6-20.64-20.34-.02-105.45-.02-210.9-.03-316.35,0-73.35,0-146.69-.01-220.04,0-10.14-2.68-12.88-12.9-12.88-106.62-.04-213.24-.05-319.86-.04-9.86,0-12.39,2.53-12.39,12.59-.02,101.23,0,202.46,0,303.69,0,77.56.05,155.13.03,232.69,0,14.43-6.16,20.53-20.5,20.65-7.26.06-14.53.09-21.79.04-13.85-.1-20.21-6.38-20.22-20.24-.04-58.81,0-117.63,0-176.44,0-40.77,0-81.55,0-122.32h.03Zm329.91-291.25c8.2,0,16.41.2,24.6-.06,8.78-.28,12.17-4.47,12.24-14.39.08-11.43-2.84-15.76-12.02-15.94-16.63-.33-33.27-.34-49.9,0-9.2.19-11.88,4.33-11.77,16.06.09,10.05,3.34,14.02,12.25,14.28,8.19.23,16.4.05,24.6.05Zm-190.82.09c6.56,0,13.12,0,19.68,0,14.78,0,17.55-2.9,17.08-17.85-.27-8.55-3.43-12.38-11.73-12.52-16.63-.29-33.27-.33-49.89.02-9.4.19-12.11,4.44-11.93,16.65.13,9.35,3.59,13.4,12.2,13.64,8.19.23,16.4.05,24.59.07Zm113.88-15.44c.06-12.86-9.72-22.68-22.54-22.64-12.09.04-22.41,10.27-22.51,22.31-.11,12.23,10.63,22.98,22.82,22.84,12.09-.14,22.18-10.35,22.24-22.52Z"/>
  <path class="cls-1" d="m630.62,648.98c1.21,12.42,2.33,23.99,3.47,35.55.44,4.43.86,8.85,1.41,13.27,1.25,9.98.22,11.58-10.45,14.68v7.19c0,51.31,0,102.63,0,153.94,0,15.95-5.53,21.43-21.59,21.47-1.64,0-3.28,0-4.92.01-16.78.07-22.09-5.29-22.09-22.35,0-50.84,0-101.69,0-152.53,0-2.55,0-5.1,0-8.16h-13.04c0,2.92,0,5.41,0,7.9,0,51.55,0,103.1,0,154.64,0,15.05-5.26,20.01-20.03,20.58-21.38.83-28.6-2.72-28.17-27.59.82-48.02.24-96.06.24-144.09,0-3.5,0-7,0-10.33-11.94-4.95-12.05-5.64-10.39-18.47,1.91-14.8,3.27-29.67,4.98-45.58-7.88,0-15.07.09-22.26-.02-8.18-.13-11.19-3.17-10.34-11.3,2.96-28.39,6.16-56.76,9.26-85.14,1.25-11.4,2.72-22.77,3.68-34.2,1.85-22.07,16.16-36.54,38.2-36.94,27.4-.5,54.83-.57,82.23-.12,24.02.39,36.65,14.59,39.61,41.96,3.89,36.05,8.27,72.05,12.42,108.07.27,2.33.45,4.67.57,7,.38,7.29-2.4,10.42-9.67,10.54-7.43.13-14.87.03-23.1.03Z"/>
  <path class="cls-1" d="m570.52,464.79c-25.03,0-45.08-20.15-44.96-45.19.12-24.09,20.68-44.53,44.52-44.26,24.71.28,44.74,20.43,44.67,44.93-.07,24.24-20.21,44.51-44.24,44.52Z"/>
</svg>