<?xml version="1.0" encoding="UTF-8"?>
<svg id="Layer_1" data-name="Layer 1" xmlns="http://www.w3.org/2000/svg" viewBox="0 0 699.91 554.68">
  <defs>
    <style>
      .cls-1, .cls-2 {
        stroke-width: 0px;
      }

      .cls-2 {
        fill: #fff;
      }
    </style>
  </defs>
  <path class="cls-1" d="m0,53.17c4.63-9.46,8.08-19.78,14.17-28.2C24.02,11.36,38.73,5.25,55.41,4.1c2.72-.19,5.46-.11,8.2-.11,190.9,0,381.81,0,572.71,0,39.35,0,63.49,24.06,63.51,63.25,0,24.15.06,48.3-.02,72.46-.06,17.99-7.13,32.16-23.12,41.25-14.16,8.05-21.8,21.17-26.6,35.89-12.46,38.24-11.96,76.03,5.95,112.73,4.79,9.81,11.97,17.54,21.61,23.05,15,8.57,21.89,22.16,22.1,39.02.31,25.06.11,50.13.08,75.19-.03,37.44-24.58,62.08-61.93,62.09-155.59.02-311.19,0-466.78,0-35.54,0-71.1-.74-106.61.21-33.52.9-56.39-18.83-63.03-50.45-.41-1.95-.98-3.86-1.48-5.79,0-29.62,0-59.24,0-88.86,4.02-16.12,13.85-27.15,28.02-35.79,6.54-3.98,11.79-11.45,15.5-18.46,16.59-31.38,17.73-64.85,10.47-98.76-4.78-22.34-14.25-42.04-35.97-53.53-4.16-2.2-7.66-6.6-10.14-10.77-3.31-5.54-5.32-11.86-7.89-17.84,0-31.9,0-63.8,0-95.7Zm304-19.91c-79.49,0-158.98,0-238.47.02-3.86,0-7.75.14-11.58.59-12.45,1.46-23.56,11.7-23.88,24.23-.73,27.99-.42,56-.4,84.01,0,6.21,3.15,10.66,8.63,13.68,13.17,7.24,23.08,17.95,29.86,31.08,25.17,48.73,25.6,98.7,5.27,148.95-7.1,17.55-18.61,32.31-35.82,41.64-6.15,3.34-8.19,8.96-8.19,15.44.02,24.6-.41,49.21.48,73.78.82,22.9,12.25,32.92,35.24,32.92,40.31.01,80.63,0,120.94,0,120.03,0,240.06-.01,360.09.04,4.54,0,7.86.07,9.5-5.83,1.62-5.84,7.12-8.76,13.43-8.52,6.27.23,10.4,3.69,13.21,9.28,1,2,3.25,4.78,4.95,4.8,19.35.17,38.72.38,58.04-.47,12.97-.57,24.15-11.38,24.49-24.23.74-27.99.41-56,.38-84.01,0-6.22-3.22-10.61-8.7-13.63-13.15-7.25-23.05-17.98-29.82-31.11-25.15-48.74-25.48-98.69-5.22-148.97,6.55-16.26,16.9-30.53,32.43-39.41,8.84-5.05,11.82-11.65,11.75-21.09-.19-23.46.04-46.93-.09-70.39-.12-21.64-11.25-32.64-32.98-32.79-15.94-.11-31.89.07-47.83-.08-4.05-.04-6.44.52-7.81,5.24-1.71,5.91-6.77,9.02-13.08,9.14-6.02.11-11.35-2.64-12.98-8.18-1.74-5.92-5.07-6.21-9.95-6.2-80.63.09-161.25.07-241.88.07Z"/>
  <path class="cls-2" d="m0,148.87c2.57,5.98,4.58,12.3,7.89,17.84,2.49,4.17,5.99,8.57,10.14,10.77,21.72,11.49,31.18,31.19,35.97,53.53,7.26,33.91,6.12,67.38-10.47,98.76-3.71,7.01-8.96,14.48-15.5,18.46C13.85,356.87,4.02,367.9,0,384.01,0,305.63,0,227.25,0,148.87Z"/>
  <path class="cls-2" d="m304,33.26c80.63,0,161.26.03,241.88-.07,4.88,0,8.21.28,9.95,6.2,1.63,5.54,6.97,8.29,12.98,8.18,6.3-.11,11.37-3.22,13.08-9.14,1.37-4.72,3.76-5.28,7.81-5.24,15.94.15,31.89-.02,47.83.08,21.73.15,32.85,11.15,32.98,32.79.13,23.46-.09,46.93.09,70.39.08,9.44-2.91,16.03-11.75,21.09-15.53,8.88-25.88,23.15-32.43,39.41-20.25,50.28-19.93,100.23,5.22,148.97,6.78,13.13,16.67,23.86,29.82,31.11,5.48,3.02,8.69,7.41,8.7,13.63.03,28,.35,56.02-.38,84.01-.34,12.85-11.52,23.67-24.49,24.23-19.32.84-38.7.64-58.04.47-1.7-.02-3.95-2.8-4.95-4.8-2.81-5.59-6.94-9.04-13.21-9.28-6.31-.24-11.81,2.68-13.43,8.52-1.64,5.89-4.96,5.83-9.5,5.83-120.03-.06-240.06-.04-360.09-.04-40.31,0-80.63,0-120.94,0-22.99,0-34.42-10.02-35.24-32.92-.88-24.57-.46-49.19-.48-73.78,0-6.48,2.04-12.1,8.19-15.44,17.21-9.34,28.72-24.09,35.82-41.64,20.34-50.25,19.9-100.23-5.27-148.95-6.78-13.12-16.69-23.84-29.86-31.08-5.49-3.02-8.63-7.47-8.63-13.68-.02-28-.33-56.02.4-84.01.33-12.53,11.44-22.77,23.88-24.23,3.83-.45,7.72-.59,11.58-.59,79.49-.03,158.98-.02,238.47-.02Zm55.78,268.75c8.06,9.48,16.02,18.81,23.95,28.16,21.35,25.19,42.64,50.44,64.06,75.58,9.43,11.07,18.07,11.05,27.94.26,3.38-3.7,6.79-7.37,10.11-11.12,11.16-12.58,12.8-28.22,4.45-42.94-8.76-15.43-17.6-30.81-26.38-46.23-12.94-22.7-25.86-45.4-38.5-67.59,6.57-9.54,13.27-18.21,18.83-27.57,10.53-17.71,19.46-36.1,17.79-57.65-1.24-15.95-12.52-26.6-28.57-27.32-16.24-.72-31.09,4.35-44.95,11.83-13.51,7.3-26.24,16.07-39.75,24.47-37.86-21.52-76.41-43.43-114.96-65.35-14.5-8.24-29.83-6.52-42.06,4.85-3.83,3.57-7.45,7.37-11.14,11.09-10.3,10.39-10.05,18.17,1.01,27.53,29.03,24.57,58.11,49.08,87.16,73.63,5.64,4.77,11.23,9.61,16.76,14.34-22.42,27.01-44.2,53.26-66.12,79.68-7.52-3.75-14.8-7.45-22.14-11.02-9.57-4.66-14.62-3.9-22.1,3.45-7.8,7.66-15.55,15.38-23.22,23.17-9.24,9.39-8.31,18.83,2.61,26.17,15.11,10.15,30.36,20.1,45.4,30.36,2.91,1.98,5.61,4.66,7.6,7.56,10.41,15.21,20.49,30.65,30.83,45.91,6.76,9.98,16.04,11.07,24.74,2.76,8.57-8.18,16.89-16.61,25.16-25.09,6.34-6.5,7-11.34,2.99-19.78-3.12-6.57-6.73-12.92-9.53-19.62-.73-1.75-.05-5.37,1.32-6.51,25.21-20.96,50.62-41.67,76.71-63.03Zm224.12-118.36c-.47-5.62-.44-11.36-1.53-16.88-1.31-6.65-7.33-10.98-13.78-10.96-6.46.02-13.1,4.35-13.61,11.02-.87,11.47-.87,23.11.02,34.57.53,6.76,7.04,10.93,13.65,10.91,6.64-.02,12.41-4.17,13.71-10.99,1.1-5.75,1.06-11.72,1.53-17.68Zm.05,82.86c-.54-6.03-.56-12.21-1.77-18.14-1.23-6.07-7.57-10.36-13.57-10.35-6.02.01-12.99,4.31-13.44,10.37-.87,11.88-.89,23.91-.07,35.79.42,6.16,7.1,10.47,13.2,10.67,6.19.2,12.67-4.29,13.97-10.71,1.15-5.72,1.16-11.66,1.68-17.63Zm-.05,82.75c-.47-5.98-.43-11.95-1.52-17.7-1.3-6.83-7.04-10.98-13.69-11.01-6.61-.03-13.14,4.14-13.67,10.89-.9,11.47-.9,23.1-.03,34.57.5,6.68,7.13,11.01,13.59,11.04,6.45.03,12.48-4.3,13.79-10.94,1.09-5.52,1.07-11.26,1.54-16.86Zm.03-247.62c-.51-5.85-.5-11.82-1.66-17.55-1.34-6.62-6.74-10.37-13.34-10.48-6.93-.11-13.28,3.66-13.84,10.55-.94,11.68-.91,23.54,0,35.22.51,6.59,6.65,10.35,13.23,10.46,6.92.11,12.57-3.68,13.97-10.55,1.17-5.73,1.14-11.7,1.64-17.66Zm-.11,330.16c-.38-5.83-.23-11.58-1.23-17.12-1.36-7.54-6.66-11.6-13.79-11.67-7.16-.07-13.32,3.92-13.92,11.33-.92,11.24-.86,22.66.09,33.9.6,7.1,6.58,10.94,13.49,11.01,7.17.07,12.6-3.91,14.04-11.34,1.03-5.3.93-10.82,1.33-16.11Z"/>
  <path class="cls-1" d="m359.78,302.02c-26.09,21.35-51.5,42.06-76.71,63.03-1.38,1.14-2.05,4.77-1.32,6.51,2.8,6.7,6.41,13.05,9.53,19.62,4.01,8.44,3.35,13.28-2.99,19.78-8.27,8.48-16.6,16.91-25.16,25.09-8.7,8.31-17.98,7.22-24.74-2.76-10.34-15.26-20.42-30.7-30.83-45.91-1.99-2.91-4.68-5.58-7.6-7.56-15.04-10.26-30.29-20.2-45.4-30.36-10.91-7.33-11.84-16.78-2.61-26.17,7.67-7.8,15.41-15.51,23.22-23.17,7.49-7.35,12.53-8.11,22.1-3.45,7.34,3.58,14.62,7.27,22.14,11.02,21.92-26.42,43.7-52.66,66.12-79.68-5.53-4.73-11.12-9.57-16.76-14.34-29.05-24.55-58.13-49.06-87.16-73.63-11.07-9.37-11.31-17.14-1.01-27.53,3.69-3.72,7.3-7.52,11.14-11.09,12.23-11.37,27.56-13.09,42.06-4.85,38.55,21.91,77.1,43.83,114.96,65.35,13.51-8.4,26.23-17.17,39.75-24.47,13.86-7.49,28.71-12.56,44.95-11.83,16.05.71,27.34,11.36,28.57,27.32,1.67,21.55-7.26,39.94-17.79,57.65-5.56,9.35-12.26,18.03-18.83,27.57,12.63,22.18,25.56,44.89,38.5,67.59,8.79,15.41,17.63,30.8,26.38,46.23,8.35,14.72,6.71,30.36-4.45,42.94-3.32,3.75-6.73,7.43-10.11,11.12-9.87,10.79-18.52,10.81-27.94-.26-21.41-25.14-42.71-50.38-64.06-75.58-7.93-9.35-15.89-18.68-23.95-28.16ZM210.01,125.35c1.45,1.31,2.59,2.39,3.79,3.41,33.04,27.92,66.12,55.8,99.1,83.78,10.31,8.75,10.73,16.06,2.34,26.27-26.04,31.63-52.01,63.32-77.97,95.01-6.35,7.76-12.42,9.26-21.6,4.88-6.15-2.94-12.18-6.12-18.28-9.17-7.79-3.89-8.19-3.75-12.85,4.56,11.32,7.55,22.84,14.86,33.92,22.8,4.51,3.23,8.7,7.36,11.93,11.86,8.05,11.22,15.48,22.9,23.11,34.33,2.61-2.44,4.87-4.55,7.43-6.94-3.76-7.53-7.63-15.22-11.45-22.94-5.59-11.32-4.17-16.76,6.05-24.52,9.06-6.88,18.2-13.68,26.97-20.92,22.29-18.42,44.38-37.07,66.55-55.62,7.61-6.37,14.22-7.5,20.33-2.97,2.88,2.14,5.35,4.93,7.69,7.69,26.67,31.42,53.27,62.89,79.91,94.33,1.66,1.96,3.49,3.77,5.17,5.59,4.87-4.08,4.73-7.85,1.83-12.03-1.55-2.23-2.75-4.71-4.1-7.08-21.33-37.31-42.67-74.61-63.96-111.94-5.46-9.57-4.85-14.51,2.45-22.73,1.51-1.7,3.15-3.3,4.61-5.04,13.59-16.19,24.69-33.78,29.69-54.61,2.06-8.6.07-10.51-8.44-8.7-1.99.43-3.95,1.08-5.88,1.74-19.68,6.71-36.86,17.54-52.17,31.5-10.08,9.19-14.3,9.68-26.05,2.98-39.7-22.64-79.43-45.22-119.02-68.05-4.69-2.7-7.87-2.63-11.1,2.53Z"/>
  <path class="cls-1" d="m583.9,183.66c-.47,5.96-.43,11.93-1.53,17.68-1.3,6.82-7.07,10.97-13.71,10.99-6.62.02-13.13-4.15-13.65-10.91-.89-11.47-.89-23.1-.02-34.57.5-6.68,7.14-11.01,13.61-11.02,6.45-.02,12.47,4.31,13.78,10.96,1.09,5.52,1.07,11.26,1.53,16.88Z"/>
  <path class="cls-1" d="m583.95,266.52c-.52,5.96-.53,11.91-1.68,17.63-1.29,6.42-7.78,10.91-13.97,10.71-6.1-.2-12.78-4.5-13.2-10.67-.82-11.88-.8-23.91.07-35.79.45-6.06,7.42-10.36,13.44-10.37,6.01-.01,12.34,4.27,13.57,10.35,1.2,5.94,1.23,12.11,1.77,18.14Z"/>
  <path class="cls-1" d="m583.9,349.27c-.47,5.6-.45,11.34-1.54,16.86-1.31,6.64-7.35,10.97-13.79,10.94-6.47-.03-13.09-4.36-13.59-11.04-.86-11.47-.86-23.11.03-34.57.53-6.75,7.06-10.92,13.67-10.89,6.65.03,12.39,4.17,13.69,11.01,1.09,5.75,1.05,11.72,1.52,17.7Z"/>
  <path class="cls-1" d="m583.94,101.65c-.51,5.96-.48,11.93-1.64,17.66-1.4,6.87-7.04,10.67-13.97,10.55-6.58-.11-12.72-3.87-13.23-10.46-.91-11.68-.95-23.54,0-35.22.56-6.89,6.9-10.66,13.84-10.55,6.6.11,12,3.86,13.34,10.48,1.16,5.73,1.15,11.7,1.66,17.55Z"/>
  <path class="cls-1" d="m583.82,431.81c-.4,5.29-.3,10.81-1.33,16.11-1.44,7.43-6.87,11.41-14.04,11.34-6.9-.07-12.89-3.91-13.49-11.01-.95-11.23-1.01-22.66-.09-33.9.6-7.41,6.77-11.4,13.92-11.33,7.13.07,12.43,4.13,13.79,11.67,1,5.54.85,11.29,1.23,17.12Z"/>
</svg>