<?xml version="1.0" encoding="UTF-8"?>
<svg id="Layer_1" data-name="Layer 1" xmlns="http://www.w3.org/2000/svg" viewBox="0 0 1080 1080">
  <defs>
    <style>
      .cls-1, .cls-2 {
        stroke-width: 0px;
      }

      .cls-2 {
        fill: #fff;
      }
    </style>
  </defs>
  <path class="cls-1" d="m737.84,560.92v244.28c-18.18-7.75-34.58-6.09-50.92,8.54,0-5.54,0-9.11,0-12.67.01-53.69.02-107.38.03-161.07,0-2.54.54-5.33-.33-7.54-.77-1.94-3.14-4.43-4.85-4.47-1.54-.04-3.93,2.68-4.55,4.63-.83,2.61-.39,5.65-.38,8.51.01,54.01.04,108.01.07,162.02,0,2.78,0,5.55,0,10.17-15.82-13.22-31.92-16.51-50.39-8.14-.24-3.74-.61-6.71-.6-9.68.1-74.97.33-149.94.21-224.91-.01-7.67,1.5-10.09,9.93-9.92,33.57.66,67.16.27,101.79.27Z"/>
  <path class="cls-1" d="m781.55,340.44c10.02,8.66,19.09,16.5,28.62,24.75-21.31,27.03-41.86,53.65-63.09,79.71-6.6,8.11-9.82,16.16-9.39,26.74.77,19.27.22,38.59.22,58.14-3,.27-4.85.59-6.69.59-34.6.03-69.2.02-105.33.02,0-11.17-1.14-21.97.22-32.45,3.67-28.32-3.35-52.28-25.51-71.16-5.96-5.08-7.3-10.3-4.2-18.85,8.08-22.25-13.73-44.99-38.36-41.53-3.07.43-6.33-.52-9.5-.83-.2-.99-.39-1.98-.59-2.97,9.02-7.79,18.05-15.58,27.72-23.93,15.88,18.75,31.55,36.64,46.45,55.15,5.53,6.87,11.34,9.48,20.14,9.26,24.77-.6,49.58-.62,74.35,0,8.83.22,14.64-2.45,20.13-9.29,14.3-17.8,29.33-35.01,44.82-53.36Z"/>
  <path class="cls-1" d="m336.86,491.45c-4.36-4.92-7.81-9.56-12.06-13.26-1.81-1.58-5.32-1.22-8.05-1.74.27,2.75-.53,6.54.98,8.09,18.8,19.34,37.85,38.45,57.07,57.38,3.22,3.17,10.37,4.79,10.83,7.86,1.38,9.31.54,18.98.08,28.48-.06,1.26-2.94,3.41-4.53,3.42-28.46.21-56.92.15-86.57.15,0-12.59,0-23.91,0-35.22,0-35.25-.01-70.49-.04-105.74-.02-24.8,16.44-41.89,41.29-42.83,11.54-.43,22.93-.15,32.88,6.94,9.22,6.57,15.83,15.3,16.78,26.54,1.05,12.51.24,25.18.24,40.44-7.29-9.79-13.21-17.75-19.15-25.7-1.71-2.29-3.09-5.08-5.32-6.63-1.92-1.34-4.84-1.24-7.32-1.77-.16,2.5-1.36,5.63-.3,7.39,3.56,5.91,7.93,11.33,11.46,16.21-9.46,10.03-18.33,19.44-28.28,29.99Z"/>
  <path class="cls-1" d="m295.03,592h60.24v207.72h-60.24v-207.72Z"/>
  <path class="cls-1" d="m682.24,301.19c22.37.13,40.61,18.54,40.48,40.86-.13,22.04-18.79,40.7-40.8,40.82-22.5.12-40.95-18.72-40.73-41.6.22-22.46,18.4-40.21,41.05-40.07Z"/>
  <path class="cls-1" d="m345.11,498.68c9.38-9.6,17.91-18.35,27.13-27.79,6.35,8.55,12.74,16.39,18.24,24.81,4.31,6.61,8.37,8.58,16.34,5.27,19.3-8.02,39.01-15.07,58.69-22.13,12.58-4.52,23.67,2.87,23.35,15.02-.2,7.59-4.42,12.51-11.07,15.16-25.28,10.1-50.46,20.56-76.16,29.48-5.46,1.89-14.69-.06-19.2-3.82-13.29-11.08-25.08-23.96-37.32-36Z"/>
  <path class="cls-1" d="m385.46,799.76h-18.48v-207.71h18.48v207.71Z"/>
  <path class="cls-1" d="m297.95,337.29h85.09c.15,16.85-6.14,29.71-19.65,38.4-14.61,9.4-30.08,9.74-45.02.76-14.15-8.5-21.22-21.25-20.41-39.17Z"/>
  <path class="cls-1" d="m294.6,810.94c23.47,0,45.95-1.1,68.26.37,15.83,1.05,24.89,16.38,22.42,34.81-7.3,0-14.78,0-22.27,0-19.65,0-39.29-.16-58.94.08-6.76.09-9.97-1.99-9.58-9.28.46-8.44.11-16.92.11-25.99Z"/>
  <path class="cls-1" d="m562.6,375.6c12.24.77,19.01,6.64,23.39,15.23,3.98,7.82,2.69,15.73-3.29,22.01-11.57,12.15-23.31,24.18-35.58,35.61-8.96,8.34-20.96,7.12-29.71-1.83-9.33-9.54-10.62-20.46-2.14-29.59,11.62-12.52,23.87-24.49,36.35-36.16,3.22-3.01,8.3-4.04,10.99-5.27Zm11.03,25.74c-1.58-1.98-3.75-6.94-7.44-8.68-3.65-1.72-10.31-2-13.06.26-9.24,7.59-18.01,16.02-25.66,25.21-6.59,7.91.17,20.25,10.5,20.77,8.24.42,35.87-26.68,35.65-37.56Z"/>
  <path class="cls-1" d="m676.61,845.78h-60.34c-1.76-12.35,2.14-22.01,11.81-29.19,10.47-7.78,21.84-8.25,33.05-2.05,11.67,6.46,16.28,16.99,15.48,31.25Z"/>
  <path class="cls-1" d="m687.37,845.42c-1.33-13.71,3.4-23.78,14.41-30.47,10.32-6.26,21.14-6.32,31.48.06,10.95,6.76,15.7,16.8,14.53,30.41h-60.42Z"/>
  <path class="cls-1" d="m388.67,291.53c-1.93,12.66-8.83,15.63-20.19,15.19-24.06-.93-48.18-.28-73.07-.28v-14.9h93.27Z"/>
  <path class="cls-1" d="m626.76,550.54c-1.2-6.67-1.26-10.54,6.83-10.45,34.23.4,68.47.17,103.96.17.21,3.35.4,6.53.64,10.28h-111.43Z"/>
  <path class="cls-1" d="m393.2,326.07h-98.05v-9.63c14.25,0,28.11,0,41.98,0,12.7,0,25.41.4,38.08-.14,7.72-.33,13.58,1.58,17.99,9.77Z"/>
  <path class="cls-1" d="m520.68,457.5c-8.88,8.74-18.03,17.75-27.09,26.66-4.81-4.05-10-8.42-14.86-12.51,9.54-9.26,19.17-18.61,28.52-27.69,3.94,3.97,8.75,8.82,13.43,13.53Z"/>
  <path class="cls-1" d="m416.02,845.72h-16.53c-4.24-12.23-8.17-23.56-11.98-34.55,17.78-1.82,30.89,12.59,28.51,34.55Z"/>
  <path class="cls-1" d="m816.26,356.98c-9.47-8.17-18.55-16-27.62-23.82,7.92-9.72,18.17-11.41,26.73-4.76,8.76,6.81,9.4,17.28.89,28.58Z"/>
  <path class="cls-1" d="m568.99,331.07c-9.26,7.95-18.09,15.53-26.95,23.13-7.02-9.14-6.66-18.45.43-25.05,7.25-6.75,17.04-6.37,26.52,1.92Z"/>
  <path class="cls-2" d="m573.63,401.34c.21,10.88-27.41,37.98-35.65,37.56-10.34-.53-17.09-12.86-10.5-20.77,7.65-9.19,16.41-17.62,25.66-25.21,2.75-2.25,9.41-1.97,13.06-.26,3.69,1.74,5.85,6.7,7.44,8.68Zm-35.27,27.56c1.01-.42,1.72-.5,2.12-.9,7.41-7.33,14.84-14.65,22.06-22.17.58-.61-.1-3.73-.71-3.92-1.44-.43-3.77-.38-4.74.54-6.9,6.52-13.6,13.24-20.19,20.07-.87.9-1.17,2.82-.94,4.13.16.91,1.66,1.59,2.42,2.24Z"/>
  <path class="cls-1" d="m538.36,428.9c-.75-.65-2.26-1.33-2.42-2.24-.23-1.31.08-3.23.94-4.13,6.59-6.83,13.3-13.55,20.19-20.07.97-.92,3.3-.96,4.74-.54.62.18,1.29,3.31.71,3.92-7.21,7.52-14.65,14.84-22.06,22.17-.4.4-1.1.48-2.12.9Z"/>
</svg>