<?xml version="1.0" encoding="UTF-8"?>
<svg id="Layer_1" data-name="Layer 1" xmlns="http://www.w3.org/2000/svg" viewBox="0 0 1080 1080">
  <defs>
    <style>
      .cls-1, .cls-2 {
        stroke-width: 0px;
      }

      .cls-2 {
        fill: #fff;
      }
    </style>
  </defs>
  <path class="cls-2" d="m538.84,889.91c14.35,24.5,33.23,34.84,53.01,29.3,22.81-6.39,31.82-20.9,31.95-50.87.64-152.62,1.32-305.24,2.04-457.86.03-5.47.7-10.93,1.32-20.02,13.3,18.3,23.14,33.24,34.44,46.97,10.35,12.57,14.19,25.86,13.76,42.18-.75,28.23.41,56.54,1.56,84.78.68,16.5,9.71,26.52,26.88,26.32,17.49-.2,26.69-10.55,26.82-30.33.26-41.84.15-83.7-.46-125.54-.09-6.29-2.33-13.55-5.99-18.62-26.57-36.87-53.12-73.8-81.28-109.44-5.91-7.48-18.4-13.39-28.04-13.66-50.43-1.42-100.93-1.59-151.35-.18-10,.28-22.85,6.88-29.1,14.75-27.11,34.13-52.36,69.76-78.02,105.03-3.12,4.28-6.6,9.65-6.68,14.57-.79,46.07-1.75,92.18-.74,138.23.41,18.87,11.15,26.3,29.17,24.54,16.39-1.61,23.11-12.27,23.53-27.73.6-22.15,4.09-44.74.93-66.35-6.77-46.36,26.53-71.43,48.89-102.9,1.76,7.15,1.76,13.76,1.76,20.38.14,153.86.41,307.71.28,461.57-.02,20.48,9.65,33.45,27.17,41.84,17.47,8.36,32.47,2.16,45.63-9.29,5.25-4.57,8.35-11.61,12.53-17.67Zm157.81-206.73c-4.15.37-7.08.97-9.98.84-26.06-1.16-26.77-1.44-26.95,25.97-.38,57.19-.11,114.39.15,171.58.02,4.63,1.89,13.21,3.22,13.27,16.35.78,13.88,16.37,21.68,29.51,3.32-11.01,5.4-17.92,7.59-25.21h25.21c2.79,6.74,5.31,12.82,8.59,20.76,4.55-9.17,6.78-19.81,10.73-20.49,14.04-2.44,12.11-12.04,12.14-20.86.18-57.19-.48-114.4.48-171.58.28-17.04-3.76-25.82-22.15-23.26-12.57,1.75-15.62-4.79-15.24-16.25.64-19.04-.26-38.13,0-57.19.17-11.69-4.88-13.22-15.47-9.09v81.98Zm-329.51-.29c-7.98.46-14.07,1.44-20.06,1.01-12.03-.88-16.34,4.4-16.28,16.15.34,60.91.17,121.81.46,182.72.02,4.56,1.07,10.18,3.84,13.46,6.12,7.25,13.65,13.32,20.96,20.22,1.34-4.07,3.34-10.11,5.56-16.82h26.57c2.01,7.45,3.73,13.85,5.45,20.24l4.78-.28c1.48-6.25,2.97-12.5,4.79-20.16,16.25,1.11,17-10.31,16.94-23.06-.27-52.3-.13-104.61-.33-156.91-.13-33.76-.29-33.74-33.14-35.87-1.01-.07-1.95-1.24-4.16-2.73v-80.47h-15.38v82.51Zm235.16-464.09c-.82-37.7-27.19-63.75-63.92-63.15-34.07.56-63.91,31.15-61.88,64.69,2.29,37.83,34.59,64.05,68.98,61.31,31.11-2.48,57.54-30.15,56.83-62.85Z"/>
  <path class="cls-1" d="m538.84,889.91c-4.18,6.06-7.28,13.1-12.53,17.67-13.16,11.45-28.16,17.66-45.63,9.29-17.52-8.39-27.19-21.36-27.17-41.84.13-153.86-.14-307.71-.28-461.57,0-6.61,0-13.22-1.76-20.38-22.36,31.47-55.67,56.54-48.89,102.9,3.16,21.61-.33,44.21-.93,66.35-.42,15.46-7.14,26.13-23.53,27.73-18.02,1.77-28.75-5.66-29.17-24.54-1.01-46.05-.05-92.16.74-138.23.08-4.92,3.56-10.29,6.68-14.57,25.67-35.27,50.91-70.89,78.02-105.03,6.26-7.88,19.1-14.47,29.1-14.75,50.42-1.4,100.93-1.24,151.35.18,9.64.27,22.13,6.19,28.04,13.66,28.17,35.64,54.71,72.57,81.28,109.44,3.66,5.07,5.9,12.33,5.99,18.62.62,41.84.72,83.69.46,125.54-.12,19.78-9.33,30.12-26.82,30.33-17.17.2-26.2-9.82-26.88-26.32-1.16-28.24-2.32-56.55-1.56-84.78.43-16.33-3.4-29.61-13.76-42.18-11.31-13.73-21.14-28.67-34.44-46.97-.62,9.09-1.3,14.55-1.32,20.02-.73,152.62-1.41,305.24-2.04,457.86-.13,29.97-9.14,44.48-31.95,50.87-19.78,5.54-38.66-4.81-53.01-29.3Z"/>
  <path class="cls-1" d="m696.65,683.18v-81.98c10.59-4.14,15.64-2.6,15.47,9.09-.27,19.06.63,38.15,0,57.19-.38,11.46,2.67,18,15.24,16.25,18.39-2.56,22.43,6.22,22.15,23.26-.95,57.18-.3,114.38-.48,171.58-.03,8.82,1.9,18.42-12.14,20.86-3.95.69-6.17,11.32-10.73,20.49-3.28-7.93-5.8-14.02-8.59-20.76h-25.21c-2.19,7.28-4.27,14.19-7.59,25.21-7.81-13.14-5.34-28.73-21.68-29.51-1.33-.06-3.19-8.64-3.22-13.27-.27-57.19-.53-114.39-.15-171.58.18-27.42.89-27.13,26.95-25.97,2.9.13,5.84-.47,9.98-.84Z"/>
  <path class="cls-1" d="m367.6,683.18v-81.98c10.59-4.14,15.64-2.6,15.47,9.09-.27,19.06.63,38.15,0,57.19-.38,11.46,2.67,18,15.24,16.25,18.39-2.56,22.43,6.22,22.15,23.26-.95,57.18-.3,114.38-.48,171.58-.03,8.82,1.9,18.42-12.14,20.86-3.95.69-6.17,11.32-10.73,20.49-3.28-7.93-5.8-14.02-8.59-20.76h-25.21c-2.19,7.28-4.27,14.19-7.59,25.21-7.81-13.14-5.34-28.73-21.68-29.51-1.33-.06-3.19-8.64-3.22-13.27-.27-57.19-.53-114.39-.15-171.58.18-27.42.89-27.13,26.95-25.97,2.9.13,5.84-.47,9.98-.84Z"/>
  <path class="cls-1" d="m602.3,218.81c.71,32.69-25.72,60.36-56.83,62.85-34.39,2.74-66.69-23.48-68.98-61.31-2.03-33.54,27.81-64.13,61.88-64.69,36.73-.6,63.1,25.45,63.92,63.15Z"/>
</svg>