<?xml version="1.0" encoding="UTF-8"?>
<svg id="Layer_1" data-name="Layer 1" xmlns="http://www.w3.org/2000/svg" viewBox="0 0 1080 1080">
  <defs>
    <style>
      .cls-1 {
        fill: blue,
        stroke-width: 0px;
      }
    </style>
  </defs>
  <path class="cls-1" d="m684.95,625.75v262.18c-10.02-.48-18.17-.88-24.88-1.2,3.19-6.41,7.43-10.96,7.45-15.54.37-80.22.23-160.44.14-240.66,0-1.6-.61-3.19-1.3-6.52-83.96,36.68-168.06,35.16-253.33-.95v261.85c-15.75,3.09-15.92,3.09-15.93-12.47-.06-75.28-.03-150.55-.03-225.83,0-5.87,0-11.73,0-20.37-32.64,19.21-65.78,29.69-100.84,23.6-22.78-3.96-44.79-13.37-66.42-22.11-4.86-1.96-6.74-11.32-11.56-20.15,25.27,9.34,45.4,19.11,66.65,24.14,38.85,9.2,75.07-.49,108.11-22.17,10.26-6.73,10.15-20.21.49-31.99-8.79-10.72-8.13-22.74,2.14-30.25,10.12-7.4,20.03-5.89,27.65,3.55,7.1,8.8,5.93,18.03-1.38,26.88-12.04,14.58-9.63,26.01,7.12,32.8,76.23,30.91,152.48,33.16,228.52-.71,15.41-6.86,17.93-18.85,6.62-31.27-8.83-9.69-9.92-19.72-.86-29.22,8.51-8.92,19.04-9.26,27.77-.66,9.15,9.02,8.58,19.47.31,29.43-11.27,13.57-9.63,26.21,5.13,34.88,49.09,28.84,98.54,30.19,148.17,1.21,4.64-2.71,9.21-5.54,14.47-8.72,5.04,13.06-.14,19.63-10.72,25.24-47.37,25.11-95.22,26.74-143.91,4.37-5.45-2.5-10.82-5.17-19.56-9.37Z"/>
  <path class="cls-1" d="m744.77,657.8c9.34,13,.9,29.39,5.73,44.59h18.22q4.97-15.73,24.52-13.85c1.06,4.24,2.2,8.78,3.37,13.44,1.78.41,3.34,1.03,4.91,1.08,25.91.74,36.77,11.9,36.81,38.04.04,30.15-.04,60.31.03,90.46.04,20.02-1.71,36.96-25.99,45.21-8.76,2.98-11.63,10.95-19.73-.58-1.95-2.78-15.78-1.32-20.07,2.62-6.26,5.76-8.28,3.95-15.6,1.79-23.37-6.89-20.51-23.75-20.32-41.1.4-36.73-.34-73.47.29-110.2.4-23.42,2.41-46.82,3.7-70.22,1.37-.43,2.75-.85,4.12-1.28Z"/>
  <path class="cls-1" d="m472.72,617.6c-12.56-4.23-25.34-8.65-38.2-12.83-12.56-4.08-15.33-10.05-6.63-21.49,8.71-11.45,6.27-28.91-4.31-38.96-10.76-10.22-23.13-12.09-36.17-4.45-12.85,7.53-17.71,23.79-11.55,37.25,12.54,27.41,11,30.67-21.51,40.77,0-21.7-.44-42.68.46-63.61.14-3.26,5.99-7,9.93-9.25,34.9-19.97,57.97-49.67,71.95-86.83,7.68-20.42,1.1-36.66-16.88-43.08-17.1-6.11-30.39,2.24-39.02,22.34-5.71,13.3-13.65,25.64-23.08,37.52-3.72-27.72-8.85-55.33,11.46-78.63,15.63-17.92,35.51-24.94,59.19-19.47,25.77,5.96,45.92,27.67,46.4,55.02,1.05,60.36.27,120.75.17,181.13,0,.94-.87,1.87-2.22,4.57Z"/>
  <path class="cls-1" d="m690.46,534.39c-16.6-4.42-31-1.92-39.87,13.84-7.04,12.51-3.56,23.8,4.54,35.13,2.53,3.55,2.04,14.34-.19,15.43-25.55,12.52-52.34,21.27-82.97,22.75,0-28.99-.35-56.34.45-83.65.1-3.37,5.84-7.52,9.85-9.66,19.61-10.46,41.16-18.11,58.87-31.06,19.39-14.18,27.8-36.24,26.02-61.01-1.17-16.32-13.13-28.51-28.19-29.02-14.79-.51-28.43,10.97-31.25,26.3-4.14,22.49-10.85,29.31-37.31,35.61,1.36-16.88.48-33.43,4.41-48.75,6.79-26.49,33.68-44.25,59.64-42.53,28.06,1.86,53.21,21.67,55.36,49.6,2.68,34.84.64,70.04.64,107.01Z"/>
  <path class="cls-1" d="m283,884.03c-8.45-8.89-19.02-14-31.5.43-3.73,4.31-27.71-12.72-27.76-20.35-.31-47.22-.91-94.47.3-141.67.47-18.32,17.56-9.45,28.79-13.15,1.02-3.26,2.37-7.59,3.91-12.52h18.93c1.22,3.91,2.57,8.26,4.07,13.08h18.42c0-12.21-.47-24.13.24-35.98.27-4.51,3.27-8.85,5.02-13.27,1.97,4.28,5.57,8.52,5.66,12.84.9,42.25,1.23,84.51,1.67,126.76.11,10.43.13,20.87,0,31.3-.29,21.71,7.36,47.19-27.74,52.54Z"/>
  <path class="cls-1" d="m468.9,307.17c-.36,31.51-26.73,56.96-58.43,56.38-30.71-.56-56.25-26.53-56.25-57.19,0-31.03,26.91-57.75,57.88-57.47,31.37.28,57.15,26.73,56.8,58.28Z"/>
  <path class="cls-1" d="m633.98,248.43c30.87.44,55.92,26.08,55.83,57.14-.09,31.36-26.88,57.92-57.84,57.34-31.29-.58-57.5-27.56-56.88-58.54.64-31.48,26.87-56.41,58.89-55.95Z"/>
  <path class="cls-1" d="m580.32,689.03c11.38,6.08,20.72,10.46,29.34,15.98,3.4,2.18,6.87,6.64,7.43,10.49,5.54,37.83,10.97,75.69,15.27,113.68,1.27,11.22-.05,23.06-2.15,34.25-2.56,13.61-18.8,22.95-33.07,20.72-14.85-2.31-25.44-14.93-25.01-31.83.66-25.71,2.23-51.41,3.54-77.1,1.45-28.34,3.05-56.67,4.65-86.18Z"/>
  <path class="cls-1" d="m659.68,638.99v232.94c-.96.44-1.93.89-2.89,1.33-2.1-4.84-5.28-9.5-6.12-14.55-7.94-48.03-15.96-96.07-22.76-144.27-1.47-10.42-2.76-16.3-14.63-19.14-19.09-4.56-31.26-18.69-35.75-35.79,26.93-6.73,53.86-13.46,82.16-20.53Z"/>
  <path class="cls-1" d="m533.63,526c-4.72,0-11.91.6-18.96-.13-11.88-1.23-19.55-7.57-18.92-20.32.61-12.34,8.11-18.61,20.17-19.54,14.19-1.09,28.57-.92,42.54-3.27,29.79-5.02,57.01-13.19,60.58-51.08.52-5.48,13.68-14.06,20.29-13.46,6.44.58,16.28,10.55,17.16,17.35,3.26,25.4-8.98,45.44-28.07,61.46-21.22,17.8-49.97,26.66-94.8,29.01Z"/>
  <path class="cls-1" d="m300.92,550.51c-3.27-3.54-13.04-9.57-15.31-17.7-3.2-11.42,5.38-20.05,17.36-21.33,47.19-5.04,74.64-33.05,90.22-75.62,4.39-11.99,14.03-15.31,25.31-12.19,11.07,3.06,15.65,11.54,13.71,22.92-8.6,50.5-73.75,104.83-131.29,103.92Z"/>
  <path class="cls-1" d="m423.7,886.8v-249.14c12.04,3.95,23.33,7.67,34.63,11.38l6.11,6.71c-4.66,1.63-9.29,3.38-14,4.88-14.81,4.72-16.55,16.06-16.41,29.55.55,53.36,2.37,106.25,25.09,156.21,10.78,23.71-7.29,43.95-35.42,40.41Z"/>
  <path class="cls-1" d="m706.34,420.6c19.91,40.43,40.6,80.49,59.32,121.46,7.34,16.05,1.03,28.92-11.29,32.34-13.4,3.71-22.38-3.36-27.25-20.82-2.04-7.32-3.67-15.31-7.82-21.4-16.31-23.96-18.83-50.44-16.92-78.2.71-10.28.11-20.65.11-30.98,1.28-.8,2.56-1.59,3.85-2.39Z"/>
  <path class="cls-1" d="m371.69,648.5c5.53-2.04,9.93-3.66,15.28-5.63v165.1c-1.99.1-3.99.21-5.98.31-3.09-53.13-6.18-106.26-9.3-159.78Z"/>
  <path class="cls-1" d="m695.13,785.45c5.51,24.46,10.64,45.04,14.64,65.83,2.41,12.51-.78,23.62-14.64,31.51v-97.35Z"/>
  <path class="cls-1" d="m300.31,624.81v-63.63h7.2v63.07c-2.4.19-4.8.37-7.2.56Z"/>
  <path class="cls-1" d="m737.9,583.04c5.58.88,9.02,1.43,11.57,1.83v42.14c-15.61-14.87-6-30.15-11.57-43.97Z"/>
</svg>